<svg width="19" height="19" viewBox="0 0 19 19" fill="none" xmlns="http://www.w3.org/2000/svg">
<g clip-path="url(#clip0_1_11)">
<path d="M8.61862 2.66529C9.76186 2.66424 10.8797 3.0023 11.8308 3.63669C12.7819 4.27107 13.5234 5.17329 13.9616 6.2292C14.3999 7.28512 14.5151 8.44728 14.2927 9.56868C14.0703 10.6901 13.5203 11.7203 12.7123 12.5291C11.9042 13.3378 10.8745 13.8888 9.7533 14.1122C8.63211 14.3356 7.46984 14.2215 6.41353 13.7842C5.35722 13.347 4.45432 12.6062 3.81907 11.6557C3.18381 10.7052 2.84473 9.58769 2.84473 8.44445C2.85166 6.91477 3.46204 5.44964 4.54321 4.36749C5.62437 3.28533 7.08895 2.67362 8.61862 2.66529M8.61862 1.58334C7.26162 1.58334 5.9351 1.98574 4.80679 2.73965C3.67849 3.49356 2.79908 4.56512 2.27978 5.81882C1.76048 7.07253 1.62461 8.45207 1.88934 9.78299C2.15408 11.1139 2.80754 12.3364 3.76708 13.296C4.72663 14.2555 5.94916 14.909 7.28009 15.1737C8.61101 15.4385 9.99055 15.3026 11.2443 14.7833C12.498 14.264 13.5695 13.3846 14.3234 12.2563C15.0773 11.128 15.4797 9.80145 15.4797 8.44445C15.4797 6.62477 14.7569 4.87962 13.4702 3.59292C12.1835 2.30621 10.4383 1.58334 8.61862 1.58334Z" fill="white"/>
<path d="M18.4722 17.5697L14.5825 13.6536L13.8331 14.3978L17.7228 18.3139C17.7717 18.3631 17.8297 18.4022 17.8937 18.429C17.9577 18.4557 18.0263 18.4696 18.0956 18.4699C18.165 18.4701 18.2337 18.4567 18.2979 18.4304C18.362 18.4041 18.4204 18.3654 18.4696 18.3165C18.5188 18.2677 18.5579 18.2096 18.5847 18.1456C18.6114 18.0817 18.6253 18.013 18.6256 17.9437C18.6258 17.8743 18.6124 17.8056 18.5861 17.7415C18.5598 17.6773 18.5211 17.6189 18.4722 17.5697Z" fill="white"/>
</g>
<defs>
<clipPath id="clip0_1_11">
<rect width="19" height="19" fill="white"/>
</clipPath>
</defs>
</svg>
